<svg width="24" height="24" viewBox="0 0 24 24" fill="none" xmlns="http://www.w3.org/2000/svg">
<path d="M18.6936 18.6089C18.6936 20.4798 17.1774 22 15.3065 22C13.4355 22 11.9194 20.4798 11.9194 18.6089C11.9194 16.7379 13.4355 15.2218 15.3065 15.2218C17.1774 15.2218 18.6936 16.7379 18.6936 18.6089ZM15.3065 8.77419C17.1774 8.77419 18.5323 7.25806 18.5323 5.3871C18.5323 3.51613 17.1774 2 15.3065 2C13.4355 2 11.7581 3.51613 11.7581 5.3871C11.7581 7.25806 10.5645 8.45161 8.69355 8.45161C6.82259 8.45161 5.30646 10.129 5.30646 12C5.30646 13.871 6.82259 15.2258 8.69355 15.2258C10.5645 15.2258 12.0807 13.871 12.0807 12C12.0807 10.129 13.4355 8.77419 15.3065 8.77419Z" fill="#64B986"/>
</svg>
