<svg width="235" height="235" viewBox="0 0 235 235" fill="none" xmlns="http://www.w3.org/2000/svg">
<path d="M183.04 182.212C183.04 200.532 168.195 215.417 149.875 215.417C131.555 215.417 116.71 200.532 116.71 182.212C116.71 163.892 131.555 149.047 149.875 149.047C168.195 149.047 183.04 163.892 183.04 182.212ZM149.875 85.914C168.195 85.914 181.461 71.0686 181.461 52.7487C181.461 34.4288 168.195 19.5833 149.875 19.5833C131.555 19.5833 115.131 34.4288 115.131 52.7487C115.131 71.0686 103.444 82.7554 85.1238 82.7554C66.8039 82.7554 51.9585 99.1801 51.9585 117.5C51.9585 135.82 66.8039 149.086 85.1238 149.086C103.444 149.086 118.289 135.82 118.289 117.5C118.289 99.1801 131.555 85.914 149.875 85.914Z" fill="#64B986"/>
</svg>
